[Header]
FileType HTR
DataType HTRS
FileVersion 1
NumSegments 64
NumFrames 4
DataFrameRate 30
EulerRotationOrder ZYX
CalibrationUnits mm
RotationUnits Degrees
GlobalAxisofGravity Y
BoneLengthAxis Y
ScaleFactor 1.0
[SegmentNames&Hierarchy]
Hips	GLOBAL
Spine	Hips
Spine1	Spine
Spine2	Spine1
Neck	Spine2
Head	Neck
LeftEye	Head
RightEye	Head
LeftShoulder	Spine2
LeftArm	LeftShoulder
LeftForeArm	LeftArm
LeftHand	LeftForeArm
LeftHandThumb1	LeftHand
LeftHandThumb2	LeftHandThumb1
LeftHandThumb3	LeftHandThumb2
LeftHandThumb4	LeftHandThumb3
LeftHandIndex1	LeftHand
LeftHandIndex2	LeftHandIndex1
LeftHandIndex3	LeftHandIndex2
LeftHandIndex4	LeftHandIndex3
LeftHandMiddle1	LeftHand
LeftHandMiddle2	LeftHandMiddle1
LeftHandMiddle3	LeftHandMiddle2
LeftHandMiddle4	LeftHandMiddle3
LeftHandRing1	LeftHand
LeftHandRing2	LeftHandRing1
LeftHandRing3	LeftHandRing2
LeftHandRing4	LeftHandRing3
LeftHandPinky1	LeftHand
LeftHandPinky2	LeftHandPinky1
LeftHandPinky3	LeftHandPinky2
LeftHandPinky4	LeftHandPinky3
RightShoulder	Spine2
RightArm	RightShoulder
RightForeArm	RightArm
RightHand	RightForeArm
RightHandPinky1	RightHand
RightHandPinky2	RightHandPinky1
RightHandPinky3	RightHandPinky2
RightHandPinky4	RightHandPinky3
RightHandRing1	RightHand
RightHandRing2	RightHandRing1
RightHandRing3	RightHandRing2
RightHandRing4	RightHandRing3
RightHandMiddle1	RightHand
RightHandMiddle2	RightHandMiddle1
RightHandMiddle3	RightHandMiddle2
RightHandMiddle4	RightHandMiddle3
RightHandIndex1	RightHand
RightHandIndex2	RightHandIndex1
RightHandIndex3	RightHandIndex2
RightHandIndex4	RightHandIndex3
RightHandThumb1	RightHand
RightHandThumb2	RightHandThumb1
RightHandThumb3	RightHandThumb2
RightHandThumb4	RightHandThumb3
LeftUpLeg	Hips
LeftLeg	LeftUpLeg
LeftFoot	LeftLeg
LeftToeBase	LeftFoot
RightUpLeg	Hips
RightLeg	RightUpLeg
RightFoot	RightLeg
RightToeBase	RightFoot
[BasePosition]
Hips	0	0	0	0	0	0	1
Spine	0	0	0	0	0	0	1
Spine1	0	0	0	0	0	0	1
Spine2	0	0	0	0	0	0	1
Neck	0	0	0	0	0	0	1
Head	0	0	0	0	0	0	1
LeftEye	0	0	0	0	0	0	1
RightEye	0	0	0	0	0	0	1
LeftShoulder	0	0	0	0	0	0	1
LeftArm	0	0	0	0	0	0	1
LeftForeArm	0	0	0	0	0	0	1
LeftHand	0	0	0	0	0	0	1
LeftHandThumb1	0	0	0	0	0	0	1
LeftHandThumb2	0	0	0	0	0	0	1
LeftHandThumb3	0	0	0	0	0	0	1
LeftHandThumb4	0	0	0	0	0	0	1
LeftHandIndex1	0	0	0	0	0	0	1
LeftHandIndex2	0	0	0	0	0	0	1
LeftHandIndex3	0	0	0	0	0	0	1
LeftHandIndex4	0	0	0	0	0	0	1
LeftHandMiddle1	0	0	0	0	0	0	1
LeftHandMiddle2	0	0	0	0	0	0	1
LeftHandMiddle3	0	0	0	0	0	0	1
LeftHandMiddle4	0	0	0	0	0	0	1
LeftHandRing1	0	0	0	0	0	0	1
LeftHandRing2	0	0	0	0	0	0	1
LeftHandRing3	0	0	0	0	0	0	1
LeftHandRing4	0	0	0	0	0	0	1
LeftHandPinky1	0	0	0	0	0	0	1
LeftHandPinky2	0	0	0	0	0	0	1
LeftHandPinky3	0	0	0	0	0	0	1
LeftHandPinky4	0	0	0	0	0	0	1
RightShoulder	0	0	0	0	0	0	1
RightArm	0	0	0	0	0	0	1
RightForeArm	0	0	0	0	0	0	1
RightHand	0	0	0	0	0	0	1
RightHandPinky1	0	0	0	0	0	0	1
RightHandPinky2	0	0	0	0	0	0	1
RightHandPinky3	0	0	0	0	0	0	1
RightHandPinky4	0	0	0	0	0	0	1
RightHandRing1	0	0	0	0	0	0	1
RightHandRing2	0	0	0	0	0	0	1
RightHandRing3	0	0	0	0	0	0	1
RightHandRing4	0	0	0	0	0	0	1
RightHandMiddle1	0	0	0	0	0	0	1
RightHandMiddle2	0	0	0	0	0	0	1
RightHandMiddle3	0	0	0	0	0	0	1
RightHandMiddle4	0	0	0	0	0	0	1
RightHandIndex1	0	0	0	0	0	0	1
RightHandIndex2	0	0	0	0	0	0	1
RightHandIndex3	0	0	0	0	0	0	1
RightHandIndex4	0	0	0	0	0	0	1
RightHandThumb1	0	0	0	0	0	0	1
RightHandThumb2	0	0	0	0	0	0	1
RightHandThumb3	0	0	0	0	0	0	1
RightHandThumb4	0	0	0	0	0	0	1
LeftUpLeg	0	0	0	0	0	0	1
LeftLeg	0	0	0	0	0	0	1
LeftFoot	0	0	0	0	0	0	1
LeftToeBase	0	0	0	0	0	0	1
RightUpLeg	0	0	0	0	0	0	1
RightLeg	0	0	0	0	0	0	1
RightFoot	0	0	0	0	0	0	1
RightToeBase	0	0	0	0	0	0	1
[Hips]
49 	-17.77180862	1010.869019	-22.89876747	-10.23850727	1.367166042	-5.211363792	1.0
50 	-16.97027969	1013.755432	-23.75156021	-9.385875702	1.288256884	-5.071715355	1.0
51 	-16.19636917	1016.393127	-24.22980309	-8.540261269	1.310231447	-4.953572273	1.0
52 	-15.50219727	1018.921753	-24.25370216	-7.734843254	1.35319221	-4.858263969	1.0
[Spine]
49 	0	101.8159943	1.315000057	3.899406672	2.281573296	2.224323511	1.0
50 	0	101.8159943	1.315000057	3.999428988	2.276537895	2.248898506	1.0
51 	0	101.8159943	1.315000057	4.078674316	2.260985374	2.28232336	1.0
52 	0	101.8159943	1.315000057	4.141918659	2.226971626	2.335772038	1.0
[Spine1]
49 	0	100.8349991	-10.00800037	1.530522585	1.628192186	0.7250091434	1.0
50 	0	100.8349991	-10.00800037	1.565136075	1.612627983	0.7486009598	1.0
51 	0	100.8349991	-10.00800037	1.588809967	1.582389474	0.7846540809	1.0
52 	0	100.8349991	-10.00800037	1.60506165	1.526067257	0.8376029134	1.0
[Spine2]
49 	0	91	-13.73399925	1.503685951	1.664022803	0.7390804887	1.0
50 	0	91	-13.73399925	1.53747344	1.649902582	0.7644589543	1.0
51 	0	91	-13.73399925	1.560450673	1.620822906	0.8020561337	1.0
52 	0	91	-13.73399925	1.576224089	1.564906001	0.8562389016	1.0
[Neck]
49 	0	166.7169952	-25.16200066	4.806787014	-2.349393606	2.051342487	1.0
50 	0	166.7169952	-25.16200066	4.754349232	-2.24459815	2.148453236	1.0
51 	0	166.7169952	-25.16200066	4.731038094	-2.149087429	2.16134882	1.0
52 	0	166.7169952	-25.16200066	4.735836029	-2.045249462	2.106645823	1.0
[Head]
49 	0	96.17900085	16.84999847	-9.593714714	-8.216305733	5.681901455	1.0
50 	0	96.17900085	16.84999847	-9.913054466	-8.028934479	6.016632557	1.0
51 	0	96.17900085	16.84999847	-10.21827888	-7.881470203	6.216275215	1.0
52 	0	96.17900085	16.84999847	-10.50343227	-7.658617496	6.235852242	1.0
[LeftEye]
49 	30.6760006	64.09500122	92.83599854	0	0	0	1.0
50 	30.6760006	64.09500122	92.83599854	0	0	0	1.0
51 	30.6760006	64.09500122	92.83599854	0	0	0	1.0
52 	30.6760006	64.09500122	92.83599854	0	0	0	1.0
[RightEye]
49 	-30.6760006	64.09500122	92.83499908	0	0	0	1.0
50 	-30.6760006	64.09500122	92.83499908	0	0	0	1.0
51 	-30.6760006	64.09500122	92.83499908	0	0	0	1.0
52 	-30.6760006	64.09500122	92.83499908	0	0	0	1.0
[LeftShoulder]
49 	45.70400238	109.4599991	-26.28000069	4.269436359	-14.33578014	-12.9432354	1.0
50 	45.70400238	109.4599991	-26.28000069	4.308736324	-14.44039917	-13.03806782	1.0
51 	45.70400238	109.4599991	-26.28000069	4.365394592	-14.67826653	-13.0358429	1.0
52 	45.70400238	109.4599991	-26.28000069	4.414221764	-14.95358753	-12.92328262	1.0
[LeftArm]
49 	105.923996	-5.24600029	-22.32099915	17.52094841	-1.029221058	-71.04057312	1.0
50 	105.923996	-5.24600029	-22.32099915	18.33670616	0.06782796234	-70.1557312	1.0
51 	105.923996	-5.24600029	-22.32099915	18.9866581	1.041178584	-69.23014832	1.0
52 	105.923996	-5.24600029	-22.32099915	19.41571999	1.615785599	-68.56480408	1.0
[LeftForeArm]
49 	278.414978	-0.0009999999311	0	3.125067849e-07	-8.208842246e-07	-0.0002084620646	1.0
50 	278.414978	-0.0009999999311	0	-6.073929626e-07	-6.343809389e-08	-0.0002094849187	1.0
51 	278.414978	-0.0009999999311	0	-8.241976843e-07	-0.5166924	-0.0001988057484	1.0
52 	278.414978	-0.0009999999311	0	-4.240544513e-06	-1.164049983	-0.00019934187	1.0
[LeftHand]
49 	283.2879944	0	0	-28.37278175	0.8917806745	-8.121318817	1.0
50 	283.2879944	0	0	-27.50237656	0.1902938783	-7.905929089	1.0
51 	283.2879944	0	0	-27.94430161	-0.7066360116	-8.145023346	1.0
52 	283.2879944	0	0	-29.1139431	-1.320781231	-8.531849861	1.0
[LeftHandThumb1]
49 	24.6609993	-15.75	26.8239994	1.152639151	3.012160063	4.497101307	1.0
50 	24.6609993	-15.75	26.8239994	0.01691440865	2.127531528	4.668839455	1.0
51 	24.6609993	-15.75	26.8239994	-0.1376255155	1.916586876	4.626114368	1.0
52 	24.6609993	-15.75	26.8239994	0.4643137753	2.609575987	4.630156994	1.0
[LeftHandThumb2]
49 	32.29800034	-18.64699936	18.64699936	19.7672596	18.40478516	26.30367851	1.0
50 	32.29800034	-18.64699936	18.64699936	19.81376839	18.91608429	25.32651711	1.0
51 	32.29800034	-18.64699936	18.64699936	19.85336304	19.31778908	24.56699371	1.0
52 	32.29800034	-18.64699936	18.64699936	19.86339951	19.4100399	24.39344788	1.0
[LeftHandThumb3]
49 	26.52600098	-15.31499958	15.31499958	-13.71367741	6.953131676	8.27071476	1.0
50 	26.52600098	-15.31499958	15.31499958	-13.4756937	6.405050755	8.054837227	1.0
51 	26.52600098	-15.31499958	15.31499958	-13.26698112	5.935419083	7.829893589	1.0
52 	26.52600098	-15.31499958	15.31499958	-13.23256016	5.850619316	7.8106637	1.0
[LeftHandThumb4]
49 	19.54599953	-11.28499985	11.28499985	0	0	0	1.0
50 	19.54599953	-11.28499985	11.28499985	0	0	0	1.0
51 	19.54599953	-11.28499985	11.28499985	0	0	0	1.0
52 	19.54599953	-11.28499985	11.28499985	0	0	0	1.0
[LeftHandIndex1]
49 	91.09299469	-5.170999527	22.60099792	0.5624014139	-0.02957553603	-8.650384903	1.0
50 	91.09299469	-5.170999527	22.60099792	0.4116600752	-0.3517072499	-8.300629616	1.0
51 	91.09299469	-5.170999527	22.60099792	0.4088092148	-0.3040902317	-8.574239731	1.0
52 	91.09299469	-5.170999527	22.60099792	0.5191471577	0.04939331487	-9.423348427	1.0
[LeftHandIndex2]
49 	36.76399994	0	0	-0.2469434589	1.680757523	-16.71548653	1.0
50 	36.76399994	0	0	-0.2464858145	1.679234624	-16.69986343	1.0
51 	36.76399994	0	0	-0.2468774915	1.680534959	-16.71318245	1.0
52 	36.76399994	0	0	-0.2484061122	1.68562007	-16.76530266	1.0
[LeftHandIndex3]
49 	28.83100128	0	0	-0.04838394374	0.7505056858	-7.377171993	1.0
50 	28.83100128	0	0	-0.04818498716	0.7489722371	-7.362026691	1.0
51 	28.83100128	0	0	-0.04835970327	0.7503157854	-7.375296116	1.0
52 	28.83100128	0	0	-0.04903865606	0.7555466294	-7.427030087	1.0
[LeftHandIndex4]
49 	23.92700005	0	0	0	0	0	1.0
50 	23.92700005	0	0	0	0	0	1.0
51 	23.92700005	0	0	0	0	0	1.0
52 	23.92700005	0	0	0	0	0	1.0
[LeftHandMiddle1]
49 	95.33399963	0	0	-1.15762639	3.944333076	-20.79675674	1.0
50 	95.33399963	0	0	-1.092099786	3.561563492	-19.91855431	1.0
51 	95.33399963	0	0	-1.081141472	3.581918716	-19.76929474	1.0
52 	95.33399963	0	0	-1.127559304	3.869859695	-20.39456367	1.0
[LeftHandMiddle2]
49 	36.98199844	0	0	-0.2875114977	1.810296178	-18.04721069	1.0
50 	36.98199844	0	0	-0.2855861485	1.804379463	-17.98616791	1.0
51 	36.98199844	0	0	-0.2841569483	1.799977064	-17.9407711	1.0
52 	36.98199844	0	0	-0.2832261026	1.797089934	-17.91096878	1.0
[LeftHandMiddle3]
49 	29.50900078	0	0	-0.3203483224	1.9080832	-19.0593338	1.0
50 	29.50900078	0	0	-0.3182998002	1.902142406	-18.99766159	1.0
51 	29.50900078	0	0	-0.3167910576	1.89776814	-18.95228958	1.0
52 	29.50900078	0	0	-0.3158198595	1.894935369	-18.92290306	1.0
[LeftHandMiddle4]
49 	28.3390007	0	0	0	0	0	1.0
50 	28.3390007	0	0	0	0	0	1.0
51 	28.3390007	0	0	0	0	0	1.0
52 	28.3390007	0	0	0	0	0	1.0
[LeftHandRing1]
49 	91.04499817	-0.4390000105	-18.65100098	-1.640916824	2.786135674	-26.93132401	1.0
50 	91.04499817	-0.4390000105	-18.65100098	-1.555624366	2.594675303	-25.90260315	1.0
51 	91.04499817	-0.4390000105	-18.65100098	-1.52756691	2.631803989	-25.55724525	1.0
52 	91.04499817	-0.4390000105	-18.65100098	-1.552683592	2.92363596	-25.85654449	1.0
[LeftHandRing2]
49 	31.54000092	0	0	-0.5636626482	2.50336194	-25.37475014	1.0
50 	31.54000092	0	0	-0.5484104156	2.470980167	-25.02330399	1.0
51 	31.54000092	0	0	-0.5328080654	2.437302589	-24.65886307	1.0
52 	31.54000092	0	0	-0.519090116	2.407227039	-24.33431435	1.0
[LeftHandRing3]
49 	29.37700081	0	0	-0.4405965209	2.225667238	-22.39248848	1.0
50 	29.37700081	0	0	-0.4273615479	2.193292856	-22.04918098	1.0
51 	29.37700081	0	0	-0.4133532345	2.158409834	-21.68022728	1.0
52 	29.37700081	0	0	-0.4005413949	2.125921249	-21.33747482	1.0
[LeftHandRing4]
49 	26.47500038	0	0	0	0	0	1.0
50 	26.47500038	0	0	0	0	0	1.0
51 	26.47500038	0	0	0	0	0	1.0
52 	26.47500038	0	0	0	0	0	1.0
[LeftHandPinky1]
49 	80.77799988	-4.887000084	-38.06099701	-1.950196028	5.227356434	-29.24429893	1.0
50 	80.77799988	-4.887000084	-38.06099701	-1.936255455	4.956877232	-28.57227707	1.0
51 	80.77799988	-4.887000084	-38.06099701	-1.931930065	4.907357693	-28.48146629	1.0
52 	80.77799988	-4.887000084	-38.06099701	-1.930530071	5.072381496	-28.85281181	1.0
[LeftHandPinky2]
49 	36	0	0	-0.2805617154	1.78883779	-17.82592392	1.0
50 	36	0	0	-0.280118525	1.78746295	-17.81175613	1.0
51 	36	0	0	-0.2798011899	1.786474109	-17.80158234	1.0
52 	36	0	0	-0.2794829607	1.785486937	-17.79138756	1.0
[LeftHandPinky3]
49 	21.14200211	0	0	-0.2531241179	1.701196194	-16.92494392	1.0
50 	21.14200211	0	0	-0.2527344227	1.699916124	-16.91180801	1.0
51 	21.14200211	0	0	-0.2524589598	1.69901228	-16.90255928	1.0
52 	21.14200211	0	0	-0.2521641552	1.698036075	-16.8925457	1.0
[LeftHandPinky4]
49 	19.75699997	0	0	0	0	0	1.0
50 	19.75699997	0	0	0	0	0	1.0
51 	19.75699997	0	0	0	0	0	1.0
52 	19.75699997	0	0	0	0	0	1.0
[RightShoulder]
49 	-45.70000076	109.4620056	-26.28000069	4.637093067	12.20030308	16.53402138	1.0
50 	-45.70000076	109.4620056	-26.28000069	4.690172672	12.43120098	16.38365936	1.0
51 	-45.70000076	109.4620056	-26.28000069	4.733035088	12.61587715	16.27401924	1.0
52 	-45.70000076	109.4620056	-26.28000069	4.776755333	12.77686405	16.27708054	1.0
[RightArm]
49 	-105.9280014	-5.248000145	-22.32099915	28.41503334	-1.150922537	61.5754776	1.0
50 	-105.9280014	-5.248000145	-22.32099915	28.60465431	-1.550729513	61.53648376	1.0
51 	-105.9280014	-5.248000145	-22.32099915	28.11963081	-1.862561703	61.67699051	1.0
52 	-105.9280014	-5.248000145	-22.32099915	27.38721085	-1.985557437	61.81754684	1.0
[RightForeArm]
49 	-278.414978	0	0	-1.250984837e-06	6.261920929	-8.594734027e-06	1.0
50 	-278.414978	0	0	2.394352578e-06	6.299210548	-1.137848722e-05	1.0
51 	-278.414978	0	0	5.798806342e-06	6.26690197	2.319649138e-05	1.0
52 	-278.414978	0	0	2.901998414e-06	6.169342518	-1.225919004e-05	1.0
[RightHand]
49 	-283.2879944	0	0.0009999999311	-20.94817543	1.351992488	9.956030846	1.0
50 	-283.2879944	0	0.0009999999311	-20.59627151	1.304937363	9.534695625	1.0
51 	-283.2879944	0	0.0009999999311	-20.17368889	1.036128759	8.365774155	1.0
52 	-283.2879944	0	0.0009999999311	-20.08683968	0.8917294145	7.515859127	1.0
[RightHandPinky1]
49 	-80.76699829	-4.885000229	-38.06000137	-1.412602305	-4.814600468	25.02252579	1.0
50 	-80.76699829	-4.885000229	-38.06000137	-1.524981499	-4.86925602	26.60865021	1.0
51 	-80.76699829	-4.885000229	-38.06000137	-1.570902348	-4.867958546	27.25347519	1.0
52 	-80.76699829	-4.885000229	-38.06000137	-1.581823826	-4.858743668	27.41798592	1.0
[RightHandPinky2]
49 	-36	0	0.0009999999311	-0.2741801143	-1.571235895	19.81539345	1.0
50 	-36	0	0.0009999999311	-0.2648379505	-1.545058727	19.47188568	1.0
51 	-36	0	0.0009999999311	-0.2586842477	-1.527531385	19.24234581	1.0
52 	-36	0	0.0009999999311	-0.2563866675	-1.520917177	19.15598679	1.0
[RightHandPinky3]
49 	-21.14200211	0	0	-0.25051561	-1.503889322	18.91382599	1.0
50 	-21.14200211	0	0	-0.2415805161	-1.477558732	18.5703373	1.0
51 	-21.14200211	0	0	-0.2356967181	-1.459940314	18.34080505	1.0
52 	-21.14200211	0	0	-0.2335037738	-1.453310251	18.25443077	1.0
[RightHandPinky4]
49 	-19.75699997	0	0	0	0	0	1.0
50 	-19.75699997	0	0	0	0	0	1.0
51 	-19.75699997	0	0	0	0	0	1.0
52 	-19.75699997	0	0	0	0	0	1.0
[RightHandRing1]
49 	-91.03599548	-0.4390000105	-18.65100098	-1.16025722	-0.8108173013	22.26775169	1.0
50 	-91.03599548	-0.4390000105	-18.65100098	-1.211380124	-1.261023641	22.99906731	1.0
51 	-91.03599548	-0.4390000105	-18.65100098	-1.221730471	-1.518872023	23.14025116	1.0
52 	-91.03599548	-0.4390000105	-18.65100098	-1.215986252	-1.642789006	23.05194664	1.0
[RightHandRing2]
49 	-31.54000092	0	0	-0.4165921211	-1.921227694	24.46634483	1.0
50 	-31.54000092	0	0	-0.4031155109	-1.891387582	24.0616169	1.0
51 	-31.54000092	0	0	-0.393183589	-1.868992925	23.75891113	1.0
52 	-31.54000092	0	0	-0.3864701986	-1.853652358	23.55197334	1.0
[RightHandRing3]
49 	-29.37700081	0	0	-0.3206269145	-1.694685698	21.42549896	1.0
50 	-29.37700081	0	0	-0.3087189496	-1.664026022	21.01917076	1.0
51 	-29.37700081	0	0	-0.2999560237	-1.641055107	20.71533203	1.0
52 	-29.37700081	0	0	-0.2940361798	-1.62531662	20.50761795	1.0
[RightHandRing4]
49 	-26.47500038	0	0	0	0	0	1.0
50 	-26.47500038	0	0	0	0	0	1.0
51 	-26.47500038	0	0	0	0	0	1.0
52 	-26.47500038	0	0	0	0	0	1.0
[RightHandMiddle1]
49 	-95.32500458	0	0	-0.3793208599	-3.016663074	9.24565506	1.0
50 	-95.32500458	0	0	-0.4596070945	-3.095760822	10.74938488	1.0
51 	-95.32500458	0	0	-0.5026919842	-3.076333523	11.53508377	1.0
52 	-95.32500458	0	0	-0.5225572586	-3.026681423	11.89281273	1.0
[RightHandMiddle2]
49 	-36.98199844	0	0	-0.1932773441	-1.325186133	16.59537315	1.0
50 	-36.98199844	0	0	-0.195442915	-1.33243525	16.68892479	1.0
51 	-36.98199844	0	0	-0.1970153004	-1.337649107	16.75618744	1.0
52 	-36.98199844	0	0	-0.1982029378	-1.341600418	16.8071537	1.0
[RightHandMiddle3]
49 	-29.50900078	0	0	-0.217125237	-1.404727459	17.59752846	1.0
50 	-29.50900078	0	0	-0.2194292247	-1.411963224	17.69115639	1.0
51 	-29.50900078	0	0	-0.2210918963	-1.417178273	17.75873947	1.0
52 	-29.50900078	0	0	-0.2223619819	-1.421126008	17.80999947	1.0
[RightHandMiddle4]
49 	-28.3390007	0	0.0009999999311	0	0	0	1.0
50 	-28.3390007	0	0.0009999999311	0	0	0	1.0
51 	-28.3390007	0	0.0009999999311	0	0	0	1.0
52 	-28.3390007	0	0.0009999999311	0	0	0	1.0
[RightHandIndex1]
49 	-91.08300018	-5.167999744	22.60099792	0.4378641844	2.047675371	1.147591472	1.0
50 	-91.08300018	-5.167999744	22.60099792	0.3856002688	1.686314225	2.492237568	1.0
51 	-91.08300018	-5.167999744	22.60099792	0.3570864201	1.534733891	3.186261415	1.0
52 	-91.08300018	-5.167999744	22.60099792	0.3410568833	1.480298758	3.5600245	1.0
[RightHandIndex2]
49 	-36.76399994	0	0	-0.189160198	-1.31133759	16.41696167	1.0
50 	-36.76399994	0	0	-0.1913338453	-1.318648696	16.51121712	1.0
51 	-36.76399994	0	0	-0.1927295923	-1.323343992	16.57175064	1.0
52 	-36.76399994	0	0	-0.1944884956	-1.329236388	16.6477375	1.0
[RightHandIndex3]
49 	-28.83100128	0	0	-0.03521160409	-0.5705839992	7.062925339	1.0
50 	-28.83100128	0	0	-0.03616164997	-0.578173697	7.15743351	1.0
51 	-28.83100128	0	0	-0.03677785024	-0.5830426216	7.217962742	1.0
52 	-28.83100128	0	0	-0.03755298257	-0.5891400576	7.293718338	1.0
[RightHandIndex4]
49 	-23.92700005	0	0	0	0	0	1.0
50 	-23.92700005	0	0	0	0	0	1.0
51 	-23.92700005	0	0	0	0	0	1.0
52 	-23.92700005	0	0	0	0	0	1.0
[RightHandThumb1]
49 	-24.64799881	-15.72700024	26.82600021	-2.858915091	-0.09815328568	-5.860442162	1.0
50 	-24.64799881	-15.72700024	26.82600021	-2.866946936	-0.1143604964	-5.336200714	1.0
51 	-24.64799881	-15.72700024	26.82600021	-2.900027514	-0.1994474977	-5.188186169	1.0
52 	-24.64799881	-15.72700024	26.82600021	-2.853198051	-0.2178301066	-5.129486561	1.0
[RightHandThumb2]
49 	-32.29800034	-18.64699936	18.64699936	22.17611885	-24.7695446	-21.80838966	1.0
50 	-32.29800034	-18.64699936	18.64699936	22.20392036	-24.54872894	-22.46638298	1.0
51 	-32.29800034	-18.64699936	18.64699936	22.21404266	-24.44386673	-22.76785851	1.0
52 	-32.29800034	-18.64699936	18.64699936	22.21846962	-24.391922	-22.91124344	1.0
[RightHandThumb3]
49 	-26.52600098	-15.31399918	15.31399918	-13.84616661	-5.569923878	-10.59340763	1.0
50 	-26.52600098	-15.31399918	15.31399918	-13.98468018	-5.836215019	-10.74299526	1.0
51 	-26.52600098	-15.31399918	15.31399918	-14.04503155	-5.956100941	-10.79567146	1.0
52 	-26.52600098	-15.31399918	15.31399918	-14.07382488	-6.014339447	-10.8175106	1.0
[RightHandThumb4]
49 	-19.54599953	-11.28499985	11.28499985	0	0	0	1.0
50 	-19.54599953	-11.28499985	11.28499985	0	0	0	1.0
51 	-19.54599953	-11.28499985	11.28499985	0	0	0	1.0
52 	-19.54599953	-11.28499985	11.28499985	0	0	0	1.0
[LeftUpLeg]
49 	82.07800293	-67.51699829	-15.99599934	-12.3620863	16.77556419	10.6879282	1.0
50 	82.07800293	-67.51699829	-15.99599934	-12.42773819	16.83646965	10.40637875	1.0
51 	82.07800293	-67.51699829	-15.99599934	-12.52129173	16.79344368	10.05999184	1.0
52 	82.07800293	-67.51699829	-15.99599934	-12.53746414	16.72823524	9.705451965	1.0
[LeftLeg]
49 	0	-443.7049866	2.845999956	25.78001976	-2.260245085	5.115962982	1.0
50 	0	-443.7049866	2.845999956	24.17713928	-2.116395473	4.760370255	1.0
51 	0	-443.7049866	2.845999956	22.58626938	-2.103732586	4.494608402	1.0
52 	0	-443.7049866	2.845999956	20.93346214	-2.185384035	4.300498009	1.0
[LeftFoot]
49 	0	-444.2789917	-29.8219986	-4.595190048	-5.149145126	-8.186062813	1.0
50 	0	-444.2789917	-29.8219986	-3.725473881	-4.767592907	-8.122634888	1.0
51 	0	-444.2789917	-29.8219986	-2.903642893	-4.326333046	-8.046729088	1.0
52 	0	-444.2789917	-29.8219986	-2.065222263	-3.870814323	-7.916980267	1.0
[LeftToeBase]
49 	0	-87.28699493	107.1060028	-5.507484436	-8.193619578e-06	1.115800956e-06	1.0
50 	0	-87.28699493	107.1060028	-5.49323225	2.520209136e-06	2.793933049e-07	1.0
51 	0	-87.28699493	107.1060028	-5.480226994	3.402863058e-06	2.841287142e-06	1.0
52 	0	-87.28699493	107.1060028	-5.42156601	9.935842172e-06	-6.433241424e-07	1.0
[RightUpLeg]
49 	-82.07800293	-67.51699829	-15.99599934	-3.576636314	-10.8773222	7.430184841	1.0
50 	-82.07800293	-67.51699829	-15.99599934	-3.824238777	-10.76918125	7.488453865	1.0
51 	-82.07800293	-67.51699829	-15.99599934	-4.03669405	-10.62826824	7.558143616	1.0
52 	-82.07800293	-67.51699829	-15.99599934	-4.13502121	-10.46572399	7.626480103	1.0
[RightLeg]
49 	0	-443.7049866	2.861999989	24.2937336	-7.074839592	-9.306079865	1.0
50 	0	-443.7049866	2.861999989	22.79423332	-7.264712811	-9.285869598	1.0
51 	0	-443.7049866	2.861999989	21.30615234	-7.451899052	-9.243266106	1.0
52 	0	-443.7049866	2.861999989	19.75257492	-7.656394482	-9.159493446	1.0
[RightFoot]
49 	0	-444.2770081	-29.83799934	-12.14830017	-8.949337959	5.225575447	1.0
50 	0	-444.2770081	-29.83799934	-11.21844769	-8.836104393	5.042468071	1.0
51 	0	-444.2770081	-29.83799934	-10.30751991	-8.851169586	4.893427372	1.0
52 	0	-444.2770081	-29.83799934	-9.375597	-8.908233643	4.740969658	1.0
[RightToeBase]
49 	0	-87.28699493	107.1060028	-8.430293083	7.643666322e-06	-2.182894292e-07	1.0
50 	0	-87.28699493	107.1060028	-8.42151165	-1.383178369e-05	3.684554599e-07	1.0
51 	0	-87.28699493	107.1060028	-8.381002426	-1.470529355e-06	6.334728369e-07	1.0
52 	0	-87.28699493	107.1060028	-8.326364517	-3.145181836e-06	-1.365550872e-08	1.0
[EndOfFile]
